name C:\Users\antoi\Documents\MyRepositories\upper-imu-dc\Results\main_tracking\Case_76\kinematics.mot
datacolumns 10
datarows 42
range 5.00000000 5.41000000
endheader 
time	clav_prot	clav_elev	scapula_abduction	scapula_elevation	scapula_upward_rot	scapula_winging	plane_elv	shoulder_elv	axial_rot	
          5.00000000	        -23.85526191	          2.05229933	         -0.76827492	         -4.27071548	         35.96960672	         -1.98298725	         68.75943576	         46.21184016	        -23.10367629	
          5.01000000	        -23.78205298	          1.84577130	         -1.03069866	         -4.32334649	         35.38431864	         -1.80565709	         68.53043417	         45.81039795	        -22.89842385	
          5.02000000	        -23.71212996	          1.63658433	         -1.29117002	         -4.37755921	         34.80555049	         -1.62704595	         68.28909092	         45.41317140	        -22.69648344	
          5.03000000	        -23.64507111	          1.42478233	         -1.54897814	         -4.43338270	         34.23333849	         -1.44722328	         68.03552900	         45.01989272	        -22.49772926	
          5.04000000	        -23.58043987	          1.21046494	         -1.80340936	         -4.49080361	         33.66771622	         -1.26627560	         67.76981331	         44.63026172	        -22.30187449	
          5.05000000	        -23.51779965	          0.99378716	         -2.05377602	         -4.54976615	         33.10870991	         -1.08430614	         67.49197811	         44.24394800	        -22.10845274	
          5.06000000	        -23.45672981	          0.77496231	         -2.29944668	         -4.61016995	         32.55633577	         -0.90143571	         67.20206231	         43.86059226	        -21.91678380	
          5.07000000	        -23.39684052	          0.55426675	         -2.53987267	         -4.67186695	         32.01059975	         -0.71780461	         66.90014383	         43.47980624	        -21.72592930	
          5.08000000	        -23.33778429	          0.33204386	         -2.77460677	         -4.73465899	         31.47149955	         -0.53357474	         66.58636364	         43.10117166	        -21.53465312	
          5.09000000	        -23.27926283	          0.10870420	         -3.00331238	         -4.79829800	         30.93902679	         -0.34893078	         66.26093164	         42.72423987	        -21.34140437	
          5.10000000	        -23.22102905	         -0.11528011	         -3.22576366	         -4.86248981	         30.41316771	         -0.16407924	         65.92411307	         42.34853417	        -21.14433637	
          5.11000000	        -23.16288480	         -0.33938612	         -3.44183873	         -4.92690110	         29.89390116	          0.02075467	         65.57619996	         41.97355621	        -20.94136498	
          5.12000000	        -23.10467547	         -0.56305545	         -3.65150790	         -4.99116922	         29.38119438	          0.20533232	         65.21747571	         41.59879664	        -20.73025525	
          5.13000000	        -23.04628355	         -0.78571273	         -3.85481912	         -5.05491413	         28.87499892	          0.38940809	         64.84818321	         41.22374867	        -20.50871889	
          5.14000000	        -22.98761952	         -1.00677732	         -4.05187918	         -5.11774602	         28.37524905	          0.57273357	         64.46850448	         40.84792452	        -20.27450937	
          5.15000000	        -22.92861258	         -1.22567511	         -4.24283085	         -5.17927393	         27.88186546	          0.75506054	         64.07854519	         40.47087155	        -20.02550246	
          5.16000000	        -22.86920617	         -1.44185101	         -4.42783542	         -5.23911625	         27.39476352	          0.93614356	         63.67832589	         40.09218717	        -19.75976592	
          5.17000000	        -22.80931842	         -1.65476436	         -4.60700357	         -5.29689556	         26.91385518	          1.11573749	         63.26778046	         39.71153454	        -19.47562414	
          5.18000000	        -22.74892541	         -1.86397614	         -4.78052793	         -5.35230505	         26.43903398	          1.29363299	         62.84673261	         39.32865577	        -19.17171732	
          5.19000000	        -22.68792471	         -2.06903152	         -4.94843376	         -5.40502660	         25.97023655	          1.46960049	         62.41488940	         38.94335782	        -18.84706079	
          5.20000000	        -22.62621211	         -2.26956552	         -5.11070157	         -5.45480937	         25.50742006	          1.64343325	         61.97181442	         38.55553990	        -18.50109266	
          5.21000000	        -22.56365668	         -2.46528011	         -5.26721733	         -5.50145633	         25.05058195	          1.81493544	         61.51692469	         38.16518750	        -18.13371929	
          5.22000000	        -22.50010664	         -2.65595579	         -5.41777748	         -5.54483507	         24.59976523	          1.98392599	         61.04949755	         37.77235837	        -17.74534012	
          5.23000000	        -22.43539444	         -2.84145208	         -5.56209414	         -5.58488105	         24.15506606	          2.15023811	         60.56869886	         37.37717520	        -17.33684354	
          5.24000000	        -22.36935136	         -3.02169944	         -5.69981636	         -5.62159583	         23.71664531	          2.31371536	         60.07362574	         36.97982187	        -16.90957197	
          5.25000000	        -22.30182971	         -3.19668705	         -5.83056684	         -5.65504239	         23.28473857	          2.47420678	         59.56334675	         36.58053080	        -16.46525362	
          5.26000000	        -22.23271553	         -3.36645404	         -5.95396925	         -5.68533981	         22.85965404	          2.63156579	         59.03695318	         36.17956717	        -16.00591114	
          5.27000000	        -22.16194641	         -3.53107150	         -6.06968895	         -5.71265049	         22.44176719	          2.78564683	         58.49359063	         35.77719980	        -15.53375871	
          5.28000000	        -22.08952092	         -3.69063203	         -6.17745886	         -5.73717157	         22.03151203	          2.93630499	         57.93248766	         35.37368425	        -15.05110021	
          5.29000000	        -22.01551660	         -3.84522971	         -6.27711338	         -5.75912248	         21.62938612	          3.08338955	         57.35295509	         34.96925195	        -14.56024230	
          5.30000000	        -21.94008770	         -3.99495618	         -6.36859589	         -5.77873893	         21.23593573	          3.22674686	         56.75439475	         34.56410165	        -14.06342861	
          5.31000000	        -21.86346436	         -4.13988745	         -6.45197601	         -5.79625785	         20.85173305	          3.36622186	         56.13628496	         34.15836877	        -13.56279601	
          5.32000000	        -21.78594426	         -4.28007985	         -6.52744095	         -5.81191201	         20.47736849	          3.50165875	         55.49816974	         33.75213071	        -13.06034516	
          5.33000000	        -21.70788306	         -4.41556257	         -6.59528324	         -5.82592263	         20.11344646	          3.63289930	         54.83963723	         33.34540875	        -12.55792159	
          5.34000000	        -21.62967683	         -4.54633503	         -6.65587798	         -5.83849335	         19.76057359	          3.75978399	         54.16029767	         32.93817009	        -12.05719845	
          5.35000000	        -21.55174419	         -4.67236536	         -6.70965768	         -5.84980543	         19.41934921	          3.88215267	         53.45975409	         32.53033285	        -11.55965462	
          5.36000000	        -21.47450754	         -4.79359467	         -6.75708570	         -5.86001651	         19.09035278	          3.99984762	         52.73757133	         32.12177717	        -11.06654261	
          5.37000000	        -21.39837816	         -4.90994413	         -6.79863684	         -5.86926121	         18.77412964	          4.11271819	         51.99324209	         31.71235856	        -10.57884660	
          5.38000000	        -21.32374437	         -5.02132688	         -6.83478533	         -5.87765425	         18.47117097	          4.22062852	         51.22615761	         31.30192403	        -10.09723348	
          5.39000000	        -21.25096727	         -5.12765962	         -6.86600347	         -5.88529452	         18.18189777	          4.32346483	         50.43558331	         30.89033428	         -9.62200211	
          5.40000000	        -21.18037873	         -5.22887531	         -6.89276650	         -5.89226922	         17.90664050	          4.42114416	         49.62064645	         30.47748222	         -9.15303553	
          5.41000000	        -21.11228217	         -5.32493284	         -6.91556225	         -5.89865595	         17.64561963	          4.51362214	         48.78033462	         30.06330435	         -8.68976012	
